<svg xmlns="http://www.w3.org/2000/svg" width="159" height="57" viewBox="0 0 159 57"><path fill="none" d="M-2.425-1.58h60.165v60.165h-60.165zM-5.238-4.528h65.796v65.795h-65.796z"/><circle stroke="#515661" stroke-width="1.493" stroke-miterlimit="3.864" cx="27.632" cy="28.371" r="26.378" fill="none"/><path fill="#515661" d="M32.54 48.424c.396-.158 1.055-.688 1.134-.924.079-.234.316-.184.369 0 .052.188.211.66.316.818.105.156.105.263-.052.343-.158.079-.561.022-.825.181l-.804.346c-.211.131-.369.146-.633.146-.263 0-.443.117-.574.144-.132.025-.594-.027-.805-.027l-.719.086c-.185 0-.357-.155-.172-.288.185-.131.366-.188.577-.212.211-.027.501-.107.659-.237.158-.133.237-.239.237-.239s.528-.022.791-.052c.264-.032.106.072.501-.085zM27.79 38.57c.233.135.756.351.782.562.026.21-.254.853-.57.853-.317 0-1.78-.812-1.545-1.215.401-.683.943-.422 1.333-.2zM38.165 18.769c-.407-.051-.83-.208-.515-.508.346-.331.259-.619.45-.848.172-.207.364-.424.313-.627-.051-.203-.458-.458-.254-.662.204-.204.56-.763.713-1.221.152-.458.966-2.34 1.119-2.747.153-.407.153-.814.356-1.069.203-.254 1.157-1.676 1.776-1.785.538-.095.947.011.947.011s1.375 1.061 1.664 1.359c.387.398 3.121 3.776 3.466 4.328.182.291 2.298 4.366 2.597 5.4.114.395.529 1.494.69 2.091.059.22.528 3.195.528 3.195s-1.028.488-1.201-.202c-.095-.381-.375-1.872-.477-2.177-.102-.306-.442-.933-.517-1.207-.076-.28-.277-1.039-.379-1.344-.102-.306-.744-1.834-.897-2.241-.153-.407-.285-.921-.349-1.068-.103-.242-.769-1.38-.057-1.573.678-.184-.697-1.663-.988-1.724-.655-.138-2.19-.771-2.742-.598-.206.064-.394.452-.241.655.152.204 1.36.466 1.654.621.251.132.809.351.758.758-.026.214-.263.547.042.752.305.203.762.209.689.868-.072.657.113.906.407 1.31.256.351.33.944.482 1.275.125.27-.768.093-.896-.207-.152-.355-.616-1.4-.897-1.655-.24-.219-.617-.026-.565.229.051.254.575 1.338.839 1.679.312.402 1.144.719 1.347 1.126.204.406.606.917.759 1.172.152.254.751.827.827 1.896.05.71.381 1.435.482 1.688.102.254-.469.345-.655.172-.304-.285-.497-.613-.521-1.07-.03-.551-.354-1.917-.855-2.635-.585-.839-.875-1.155-1.129-1.359-.254-.203-1.028-.925-1.286-1.256-.294-.379-.744-1.123-.897-1.632-.152-.508-.679-.381-.758.069-.076.433-.077.809.483 1.471.559.662.753 1.17 1.211 1.272s.713 0 1.068.611c.356.61 1.254 2.139 1.305 2.494.051.357-.894.27-1.034-.207-.123-.417-.515-1.435-.667-1.688-.152-.255-.27-.572-.575-.368-.306.203.115.796.207 1.034.115.298-.458.512-.712.207-.254-.306-.418-.932-.574-1.218-.138-.252-.478-.59-.647-.509-.341.164-.121.745-.02 1.152.101.407-.226.59-.514.375-.407-.306-.33-1.069-.585-1.424-.254-.357-.661-.561-.712-.917-.051-.356.017-.844.204-1.018.356-.331.203-.636.153-.865-.046-.205-.182-.395-.2-.679-.026-.407.25-.415.352-.618.102-.205.077-.553.015-.76-.069-.23-.292-.542.115-.644.407-.102.572-.033.828.069.254.102.874.47 1.077.47.204 0 .94.017.814-.596-.037-.18-.56-.498-.763-.396-.204.102-.601.124-.83-.052-.298-.229-1.129-1.042-1.18-1.144s.381-1.042.788-1.195c.407-.153.963-.265.811-.621-.152-.355-.749-.436-.902-.69-.153-.255-.575-.676-.88-.473-.305.204-.656.258-.86.309-.203.051-.56.356-.662.764-.101.407-.976 2.017-1.017 2.543-.016.21-.662.712-.56.967.102.254.305.152.509.204.203.05.101.458-.153.763s-.283.67-.356.814c-.123.242-.572.159-.647.401-.145.477-.399.73-.719.923zM41.375 8.291s-1.653.866-1.956 1.239c-.236.292-.56 1.793-.672 1.961-.112.168-.217.442-.217.723 0 .281.049.453-.231 1.182-.28.728-.504 1.12-.616 1.681-.112.559.224.896-.056 1.4-.28.504-.561.812-.617 1.093-.056.28-.329.639-.441.918-.112.281-.897.561-.729.057.168-.505.636-2.014.972-3.751.337-1.737.358-2.635.946-4.4.555-1.663 2.674-2.883 2.674-2.883l.943.78zM35.77 36.391c-.231.256-.591.564-.874.744s-.36.646-.386 1.028c-.026.385.591.718.771.667.18-.051.128-.411.051-.745-.078-.334.154-.616.437-.668.283-.052.257.31.462.951.205.641.745.95 1.028.977.283.026.584-.049 1.184.097.475.115.897.238.846.545-.052.311.205.746.385.695.179-.052.462-.464.411-.668-.051-.205-.745-.926-1.361-1.209-.616-.283-.925-.308-1.311-.822-.385-.514-.18-1.387-.128-2.055.051-.669-.206-.881-.565-.83-.359.051-.583.2-.551.586.025.308-.167.449-.399.707zm-4.017 2.421c-.567-.125-.47.146-.444.319.025.173.371.47.444.567.074.098-.165.812.452.564.162-.062.263.148.411.37.149.224.099.493.074.666-.024.173.321.271.543.519.376.42 1.11.492 1.603.492.494 0 1.208-.021 1.751-.318.418-.229 1.151-.424 1.375-.521.222-.1.714.127.896.033.247-.122.122-.426 0-.599-.123-.173-.482-.218-.654-.192-.173.023-.407-.029-.703-.128s-.443-.246-.888-.124c-.444.124-1.505.124-1.998-.074-.493-.195-.766-.763-.912-1.106-.152-.358-.604.036-.877-.015-.21-.036-.569-.343-1.073-.453zm2.796 5.87c.014.286.242.697.345.826.104.128.483.62.759.688.18.047.711-.067.968-.1.438-.052.545-.669.031-.796-.349-.088-.655-.173-.758-.653-.109-.51-.08-.707-.585-.69-.289.009-.794.033-.76.725zm2.608-1.286c.249-.102 1.42-.125 1.57-.076.149.052.44.359.544.601.035.083.424.69.275.966-.15.274-.31.483-.275.828.026.275.343.441.724.275.38-.167.172-.414.651-.649.185-.091.125-1.097.125-1.222s-.199-.723-.324-.872-.423-.324-.449-.474c-.025-.149-.149-.426-.449-.448-.299-.025-1.503.128-1.968.286-.464.158-.674.486-.749.608-.074.129-.023.327.325.177zm9.119-8.183c-.077.104-.254.273-.154.539.078.207.463.693.668.977.206.282.303 1.408.121 2.026-.106.364.285.485.323.865.042.41-.379.425-.379.579s.325.761-.034 1.172c-.242.275-.04 1.13.171 1.138.338.013.829-.461 1.053-.713.206-.231 1.012-1.63.862-1.965-.203-.451-.531-.418-.458-.89.036-.23.295-.803.219-.982-.077-.18-.208-.203-.464-.588-.257-.387-.359-.85-.437-1.079-.077-.231-.308-.565-.385-.592-.077-.026-.129-.076-.257-.205-.129-.128-.437-.487-.849-.282zm2.923-.481c-.379-.256-.483-.791-.586-.945-.104-.153-.776-1.16-1.007-1.264-.25-.112-.951-.951-1.696-1.336-.745-.388-1.387-.283-2.261-.207-.873.078-2.364 1.054-2.62 1.105-.257.05-.54-.335-.848-.488-.309-.154-.488-.053-.823-.154-.333-.104-.411-.23-.796-.438-.386-.206-.591-.104-.9.025-.309.128.052.386.411.514.361.128.849.154 1.081.438.23.283-.129.412-.386.438s-.513-.152-.694-.281c-.18-.129-.455.307-.352.512.102.205.352.233.558.312.206.076.977-.117 1.156-.015.18.104.086.444.009.6-.078.154.07.526.276.655.206.127-1.434-.055-1.493.195-.127.543.424.56.771.516.446-.057.252-.029 1.542-.104 1.799-.104 2.903.692 3.417 1.002s1.012 1.488 1.063 2.338c.052.849-.41 1.182-.488 1.875-.076.693.396 2.438.498 2.771.103.333.644.144.619-.038-.026-.18.042-.318.221-.552.18-.229.267-.257.112-.616-.154-.359-.28-.759-.28-1.4 0-.643.186-.608.392-1.791.206-1.185-.416-2.405-.699-3.127-.283-.72-1.798-1.311-2.081-1.488-.283-.18-.565-.463-.668-.616s-.36-.078-.591-.283c-.231-.206.296-.421.456-.509.337-.182.747-.566.854-.493.318.218-.062.597.11.701.213.127.594-.298.759-.174.205.155.657.452.138.587-.492.127.059.398.291.374.13-.015.674-.408.916-.202.174.15-.215.555.171.655.158.04.364.114.724.14.359.025.309.359.437.359s.642-.051 1.053.104c.411.153 1.051.768 1.259 1.002.318.359.707-.08.836-.261.128-.181-.065-.535-.194-.511-.128.025-.448.224-.667.075zm-11.357-9.524c-.206.257-.003.874.177.823.301-.085.589-.268.667-.344.077-.078.379-.376.919-.299.54.077 1.347.54 1.475.617.129.077.476.319.456.715-.02.396-.436.414-.738.596-.234.14-.412.309-.694.282-.283-.025-.796-.282-1.079-.18-.283.103-.54.36-.283.565.257.206.627.107.91.082.283-.025.193.609-.172.655-.412.051-.523.627-.241.586.539-.078.616.293.436.447-.18.154-.61.241-.712.346-.103.102.192.379.449.379.256 0 .714-.283.827-.347.332-.182.602-.11.893.14.245.207.797-.412 1.414-.517.617-.103 1.101-.294 1.287-.271.275.033.281.593.436.617.154.025.82.015 1.206.063.386.052.993.409 1.304.299.455-.157.058-.555.007-.71-.052-.152-.052-.333-.129-.514-.077-.182-.36-.385-.385-.642-.026-.258.231-1.028-.437-1.233-.668-.207-.986-.171-1.011-.326-.026-.154.035-.523-.12-.549-.154-.025-1.878-.146-2.087-.209-.421-.13-1.073-1.153-1.767-1.332-.693-.18-1.202-.4-1.773-.078-.593.339-.927.366-1.235.339zm-6.533 1.542c.138-.161-.271-.327-.621 0-.367.345-.092.998.207 1.119.305.124.823.297 1.356.109.391-.138.689-.338.689-.821 0-.207-.298-.354-.555-.434-.265-.083-.309.102-.256.206.051.102.302.244.025.553-.271.302-.773.185-.951 0-.239-.249.03-.643.106-.732zm-8.893.031c-.36.359-.237.743.046.974.225.184 1.153.309 1.608.138.368-.138.658-.625.632-.907-.019-.205-.18-.385-.437-.488-.257-.103-.308.205-.206.411.103.206.206.668-.462.72-.668.052-.637-.479-.54-.771.156-.462-.101-.514-.641-.077zm6.313 8.405c-.352-.316-.18-1.412-.643-1.438-.211-.012-.513.206-.667.309h-.771c-.462.053-.206.51-.077.85.206.539.745.283.899.334.155.052.181.229.386.229.206 0 .359-.104.617.205.347.415.77-.027.256-.489zm-8.634-10.235c-.54.437-.797.635-.706 1.092.103.513.874.667 1.131.667s.591-.564.745-.898c.138-.299.343-.676.163-.86-.226-.231-.87-.463-1.333-.001zm2.344 3.379c-.344-.045-.444-.098-.805-.253-.359-.154-.452.312-.298.415.155.103.644.229 1.378.297.438.042 1.102.013 1.311-.022.203-.034.574-.137.601.303.032.515-.527.309-.739.312-.272.003-.967-.032-1.379-.086-.411-.052-1.425-.274-1.792-.528-.247-.17-.458-.495-.817-.598-.36-.103-.661.561-.378.69.168.077.506.276.207.574-.414.416-.131 1.041.023 1.195s.627.835.781.989c.154.153.548.071.702.175.082.055.566.395.771.668.154.206.463-.104.72-.309.257-.207.514.205.411.41-.103.207-.154.207-.36.67-.205.461-.668.41-.976.41-.308 0-.256.309-.256.309s.205.309.205.462-.36.31-.72.31c-.359 0-.719-.104-.976-.156-.256-.051-.18.312.051.518.207.186.462.691.925.821.179.051.583-.017.72-.104.289-.185.771-.427.771-.719 0-.294-.201-.557.242-.822.344-.207.605.205.812.359.205.154.591-.026.899-.282.309-.257.252-.974.18-1.312-.078-.358-.413-.272-.694-.516-.36-.308.18-.719.18-.719s.95-.54.899-1.025c-.053-.514.068-1.08.206-1.361.091-.188-.329-.221-.046-.683.241-.395.868-.783.919-1.194.051-.412-.273-.588-.581-.69-.309-.104-.363.343-.43.735-.072.418-.483.644-.874.736-.291.066-1.448.068-1.793.021zm3.355 13.247c-.207.206-.442.276-.655.38-.252.122-.073.9.276.861.204-.021.585.209.758.481.166.267.458.612.586.688.286.171.552.414 1.103.587.606.188 1.894.186 2.331.159.437-.025.098-.41-.159-.438-.256-.025-1.663-.249-1.997-.402s-.6-.5-.676-.681c-.077-.181-.447-.221-.602-.478-.154-.258-.292-.777-.344-1.06-.052-.276-.458-.257-.621-.097zm11.766 5.234c-.203.181-.373.164-.678.316-.305.152-.634.447-1.143.523-.248.039-.657.104-.784.029-.127-.076-.185-.836-.235-1.113-.05-.279-.432-.659-.534-.765l-.229-.405c-.152-.254-.407-.435-.534-.381-.127.051-.229.127-.407.152-.178.021-.483-.206-.636-.436-.153-.229-.687-.305-.916-.305-.228 0 .026.432.179.561.153.128.355.482.432.609.076.127.432.178.687.202.254.025.508.181.508.483 0 .307-.432.307-.559.434-.127.125-.339.163-.568.088-.229-.076-.167-.477-.42-.757-.145-.159-.869-.553-1.429-.704-.559-.154-1.603.074-1.908.279-.305.202-1.043.508-1.246.508-.204 0-.395-.092-.726-.041-.331.053-.7.805-.827 1.035-.127.229-.391.665-.034.792.355.126.925-.108 1.231-.185.304-.075.94-.406 1.246-.457.306-.051.683-.229 1.069-.33.422-.11.544-.271.748-.45.204-.177.497-.017.7.085.204.102.451.173.757.225.306.051.28.252.195.336-.12.121-.365.213-.67.265-.305.051-.638.286-.829.341-.269.074-.869.354-1 .414-.286.129-1.169.615-1.272.691l-.643.168c-.204.104-.333.39-.028.617.306.229.864.163 1.373.111.509-.051 1.597-.216 2.436-.141.841.076 1.833.035 2.213-.168.381-.203.708-.222 1.064-.195.356.023.631.1.784-.028.153-.128.602-.405 1.009-.532.407-.127 1.048-.34 1.303-.467.255-.127.426-.484.62-.681.207-.205.482-.171.793-.31.21-.096.265-.104.24-.23-.025-.128-.199-.321-.275-.426-.076-.103 0-.647 0-.824 0-.18-.74-.279-.689.102.036.285-.165.787-.368.965zm.525-11.07c-.302.502-.078.481.324.799.405.321.277.805.302 1.157.025.352.482.475.683.626.202.149.367.456.619.582.251.125.52.098.796.396.277.304.171.689.367 1.058.255.473.655.326.754.681.058.21-.101.503-.126.704-.025.201.181 1.08.181 1.732 0 .653-.508 1.233-.558 1.61-.051.376.101.327.276.679.176.354-.79.432-.891.558-.1.126-.636.692-.764.764-.241.14-.896.948-.931 1.293-.069.69-2.964.793-2.861 2.413.032.497-.724.346-1.724.793-.677.305-2.088-.346-2.516-.346-.427 0-3.654.277-4.067.242-.329-.027-.857-.539-1.04-.641-.401-.219-.681-.42-1.335-.546-.654-.125-.99-.228-1.04-.378-.051-.148.147-.404.198-.607.05-.199-.101-.478-.227-.604s-.196-.771-.196-1.002c0-.365.321-.962.519-1.372.196-.412.429-.44.63-.616.201-.177.854-.339.784-.615-.05-.201-.276-.486-.553-.662-.301-.192-.823.063-1.275.24-.452.176-1.141.809-1.241 1.033-.1.227-.288.821-.471 1.227-.182.4 0 1.02.254 1.746.078.226.141.625.217.93.076.301.377.501.578.701.201.203.197.483.224.66.025.178-.19 1.129.036 1.455.226.326 1.119.348 1.018.146-.082-.164.139-1.335.691-1.335 1.127 0 1.154 1.126 1.636 1.298.107.039.917-.019 2.386-.095 2.024-.104 4.256-.521 4.343-.553.151-.049 2.037-.846 2.138-.896.1-.052 1.31-.528 2.24-.931.931-.402 2.309-1.094 2.184-1.287-.414-.646-.035-1.303.166-1.479.276-.239 1.421-.905 1.565-1.018.481-.38.835-.837.925-1.072.089-.235.104-.646.196-.841.083-.178.832-.171.756.18-.069.321.413.555.654.727.194.139.648-.521.724-.621.31-.413-.073-1.055-.903-.93-.623.096-.311-.662-.336-.839-.025-.178-.538-.243-.588-.616-.017-.129-.185-.496-.336-.672-.15-.177-.504-.332-.504-.533 0-.176.258-.229.308-.504.05-.274-.089-.677-.14-.951-.05-.277-.22-1.39.056-1.515.277-.125.348.229.448.505.101.275.51.344.56.168.05-.176.045-.689-.056-1.094-.101-.4-.879-.859-1.106-.938-.226-.074-.276-.125-.503-.276-.226-.147-1.74-.097-2.302-.215-.691-.146-1.251-.433-1.527-.582-.278-.144-.267-.173-.619.079zm-16.875 12.215c-.534-.229-1.294.235-1.395.459-.172.38.275.792.793.965.403.136 1 .172 1.206-.207.226-.414-.235-1.06-.604-1.217zm-.655-1.587c.201-.075.655-.207.992-.288.154-.037.424.001.525-.126.101-.126.432-.63.532-.882.101-.251.302-.401.605-.554.302-.15.338-.547.453-.73.133-.212.688-.084.651-.521-.038-.438-.785-.336-1.138-.311-.352.023-.792.206-1.275.414-.398.17-.722.306-1 .48-.277.178-.579.408-.655.588-.075.176-.108.405-.309.559-.202.15-.58.227-.781 0-.201-.227-.19-.505-.392-.605-.201-.101-.437-.16-.515-.301-.108-.195-.106-.343-.252-.404-.163-.065-.35-.01-.427-.25-.094-.287-.048-.521-.288-.756-.285-.279-.351-.897-.552-1-.201-.101-.585-.178-.585-.38 0-.231.141-.509.392-.559.276-.058.227-.556.303-.757.076-.201.705-.68 1.158-.805.454-.127.68-.252.806-.178.126.075-.025.479.126.555.151.075 1.31.353 1.611.227.303-.125.932-.604 1.31-.578.378.023.555.176.428.429-.125.251-.705.479-.855.729-.152.251-.479.554-.479.554s-.277-.05-.579-.075c-.302-.025-1.108.051-1.334.654-.227.604-.126 1.008-.076 1.184.05.178.177.683.227.808.05.126.403.126.554.024.151-.102.355-.492.304-.695-.05-.2-.276-1.031.069-1.207.249-.121.68-.012.655.142-.025.147.04.431.241.379.201-.052.591-.173.793-.173.201 0 .715.193.896.173.872-.104.946-.417 1.034-.653.24-.654.765-1.25 1.344-1.035.551.203.808-.176 1.059-.276.252-.101.403-.024.63.151.227.175.528 1.031.806 1.512.276.479.657.88.884 1.007.226.125.648.161.723.263.076.102.523.446.825.521.303.076 1.306-.167 1.457-.167s.584.251.812.503c.227.253.274.271.476.449.202.176.501.305.477.027-.025-.277-.118-1.041-.42-1.316-.302-.277-.47-.57-.697-.57-.226 0-.752-.205-.872-.242-.437-.137-.818-.361-.98-.505-.224-.194-.08-.687-.065-.877.022-.306-.069-.807-.219-1.167-.345-.828-.345-1.139-.444-1.512-.118-.447-.037-1.077-.313-1.18-.277-.101-.931-.238-1.379-.17-.503.076-.713.16-.964.033-.252-.128-.462-.396-.966-.347-.504.052-.582-.036-.758-.14-.175-.101-.438-.125-.689 0-.252.127-.436.397-.208.449.226.051.503.023.629.176.126.15.202.377.378.556.176.177.428.354.353.454-.076.1-.403.275-.479.226-.075-.05-.49-.325-.817-.503-.327-.177-.647-.467-.958-.361-.203.067-.237.57-.414.696-.177.124-.456.236-.607.068-.152-.175-.286-.787-.462-.862-.176-.074-.634-.217-1.137.034-.504.253-.811.296-1.035.345-.31.069-.689.104-1.034.207-.273.082-.655.381-1.344.381-.481 0-1.406-.062-1.482.24-.075.303-.253.485-.152.711.101.229-.251.684-.604.381-.353-.304-.202-1.06-.126-1.311.075-.252.543-2.071.745-2.298.201-.229.689-1.179 1.068-1.413.269-.166.654-.143.755.107.101.252.126.981.025 1.107l-.554.177c-.251.151-.665.724-.64.95.026.229-.065.357.313.333.377-.024.482-.133.583-.058.101.074.432.187.759.035.327-.15.898-.153.848-1.035-.05-.881-.101-1.258.05-1.61.151-.353.403-.729.025-1.134-.378-.402-.652-.813-1.154-.863-.95-.094-.628.403-.804.529-.177.125-.641.259-1.069.184-.428-.074-.898-.072-1.103.241-.248.38-.428.539-.479.866-.05.328-.302.854-.529 1.107-.227.252-.256.439-.372.815-.111.362-.216.971-.242 1.173-.025.202.462 1.788.638 2.268.177.479.428 1.512.63 1.688.201.177.402.15.629.05.227-.099.529-.149.654.103.126.25.034 1.136.068 1.343.042.248.285.622.411.748s.05.274.151.479c.101.2.252.274.503.377.252.102.504.15.604.379.101.227.125.428.428.629.302.201.654.453.654.705s-.327.401-.73.527c-.403.126-1.034.154-1.158.377-.127.229-.269.422.058.521.328.103 1.244.092 1.849-.11.604-.202 1.275-.442 1.391-.61.111-.164.393-.571.594-.647zm-6.579.819c.014-.529-.691-.844-1.02-1.014-1.138-.586-.605-1.068-1.034-1.413-.386-.309-.674 1.037-.571 1.218s.104.722.386.875c.283.152.713.608.919.779.156.133 1.045.647 1.149.828.001 0 .158-.742.171-1.273zm1.424 1.968c.164.099 1.469.854 1.829 1.085s2.959 1.661 3.808 1.815c.849.152.323-1.031-.154-1.367-.56-.394-1.212-.528-2.137-.965-.925-.438-1.949-.844-2.179-.926-.757-.273-1.167.358-1.167.358zm-5.91-6.82c-.077.566 1.037.311 1.448.311s.747.418 1.235.677c.487.257.693.487.925.796.231.311 1.729 1.266 2.004 1.389.694.309.591-.076.206-.541-.466-.558-1.588-2.232-1.922-2.488-.217-.168-.529-1.276-1.068-1.379-.54-.104-.275.137-1.068-.141s-1.197-.258-1.207.034c-.011.321.292.53.05.635-.294.122-.475.244-.603.707zm-.621-.965c.463-.488.644-1.408 1.055-2.051.411-.646.617-.848.9-1.002.282-.153.359-.336.23-.616-.098-.218 0-.283.463-.54.462-.258.749-.344.903-.857.103-.343.847-1.643.551-1.758-.295-.117-.603-.331-.551-.587.051-.256.485-.267.716-.396.231-.129.154-.283-.077-.438-.232-.151-.849-.179-1.157-.127-.309.051-.463.438-.745.692-.283.258-.499.074-.848.539-.308.41-.463 1.517-.617 1.899-.154.386-.231.284-.386.54-.154.26.309.206.437.489.128.28.129.498-.128.514-.85.054-.339.4-.39.812-.046.371-.851 1.957-.977 2.334-.102.31.262.631.621.553zm-1.957-2.975c.242.127-.026.804.269 1.08.215.199.583-.312.655-.793.089-.601-.215-1.562.081-2 .295-.438.55-.709.577-1.173.026-.462.361-.819.577-1.104.216-.283.794-.752.901-1.034.106-.284-.092-.518-.469-.413s-1.119.726-1.544 1.046c-.217.163-1.237 1.393-1.34 1.574-.253.445.292.6-.028 1.16l-.184.689c-.296.49.021.89.505.968zm4.766-6.039c.197-.123.264-.189.56-.143.296.051 1.79.43 2.801.281 1.011-.148 2.125-.66 2.297-.98s.492-.636.64-.811c.148-.172.089-.73-.107-.809-.197-.071-.668-.299-.915-.053s-.481.239-.753.215c-.271-.023-.881.032-1.526.194-.516.129-1.848.644-2.297.896-.44.248-.86.723-1.008.869-.148.153.111.463.308.341zm.864-23.169l-1.535 1.297s1.006-.355 1.19.059c.271.612.735.919 1.24.677.444-.211.832-.081 1.057.38.259.527.504.773.447 1.283-.103.925-.899 3.726-.359 5.704.271.999.154 1.438 1.258 2.8.584.72 1.773 1.671 1.928 1.876.154.206.206.565.411.462.206-.103-.025-.976-.437-1.439-.411-.462-2.338-1.747-2.544-3.545-.206-1.799.052-2.929.257-3.392.206-.462.25-1.333.25-1.591 0 0-.004-.577.345-.505.267.055.368 1.019.368 1.378 0 .36.065 1.027.065 1.027s.308.719.308.925c0 .205-.308.925-.205 1.233.103.309.514.566.668.822.154.257-.104.668.102.925.206.258.822 1.182 1.182 1.285s1.466.492 1.671.286c.206-.205.668-.794-.103-1-.771-.206-1.979-.675-2.287-1.753-.309-1.079-.221-3.314-1.608-6.14-1.387-2.827-2.292-2.526-2.774-2.711l-.895-.343zm17.791 2.077c-.953 2.688-1.065 2.773-1.009 3.613.056.84.588.896.924.392.337-.504.49-.907.924-.952.298-.03.354.418.298.978-.056.56.375.171.655-.221.279-.392.411-1.645.468-2.316.057-.672.182-1.191.215-1.743.036-.551.143-1.241-.138-1.241-.28 0-.517.104-.517-.138 0-.376.956-1.202 1.275-1.448.448-.344.105-1.043-.448-.724-.653.379-1.695 1.111-2.647 3.8zm-16.121-3.572s.9.986 1.068.931c.168-.056.39-.677.61-.634.424.083.575.837.631 1.117.056.28.451.56.601.76.252.336.84 2.548.953 3.109.112.561.723 4.83 1.009 5.21.504.672 1.037.663.7-.392-.42-1.317-.557-4.116-.333-5.068.224-.953-.155-2.731-.379-3.068-.224-.336-.065-.887.104-1 .168-.112.818.311.931.758l.321 3.447c.112.42.404.601.506.896.126.366-.001.729.167 1.065.168.336.849 1.473 1.144 1.796.344.379.724.517.817.221.1-.318-1.121-1.513-1.4-2.969-.179-.928-.588-1.654-.588-2.241-.124-.318-.113-.571-.174-.744-.074-.211.008-1.663-.16-2-.168-.336-1.35-1.26-1.592-1.155-.588.251-1.317-.394-1.602-.637-.196-.167-1.094-.646-1.094-.646s1.777-.689 2.174-.87c.36-.164 1.068-.333 1.068-.333s-.489.729-.103 1.378c.286.482.474 1.225.838.525.523-1.007.261-2.61.97-2.86.325-.115 1.737.252 2.073.533.147.123.728.979 1.092 1.036.499.077 1.135.154 1.524.199.692.08 1.209.801 1.372 1.261.448 1.26-.527 2.858-.527 2.858s-.206.473-.137 1.344c.066.854-.036 1.4.356 1.4s.392-1.681.672-2.297c.28-.615.354-1.176.418-1.688.069-.551-.013-2.443-.068-2.724-.056-.28-.462-.909-1.189-1.021-.728-.112-1.905-.56-1.625-1.009.28-.448 2.129-.225 2.409-.168.28.057.918.213 1.061.992.138.759.056 2.573.034 2.896-.034.517.508-.094.655.035.277.241-.336 1.322-.448 2.275-.112.952-.518 1.813-.181 1.87.335.056.896-1.513 1.456-2.857.56-1.344.467-1.21.467-1.378 0-.168-.164-.708.172-.931s1.448-.31 2.104-.379c.479-.051.75-.301.688-.517-.062-.216-.953-.332-1.172-.311-.344.035-1.055.208-1.227.035-.12-.121.122-1.587.122-1.587s1.647.206 2.314.343c.386.081 2.844 1.04 3.516 1.265.672.224 2.114 1.218 2.114 1.218s-.629-.144-.996.176c-.582.509-1.162.509-1.709.509-.582 0-1.634-.292-2.194.94-.561 1.232-1.037 3.109-1.149 4.286-.111 1.176-.663 2.345-.392 2.437.354.12.826-.826 1.026-1.625.143-.57.412-1.25.564-1.528.168-.308.727-.801.727-.073s-.428 1.395-.764 2.291-.38 1.353-.741 1.663c-.588.505-.78 1.009-.336.953.345-.044.862.025.654.335-.25.375-.654.562-.43.785.225.224.849.123.913-.268.064-.391.039-1.133.264-1.357.224-.224.501.071.392.449-.173.597.448.322.241 1.011-.081.268-.494.781-.437.949.056.167.644.532-.672.672-.39.041-2.109-.533-2.58-.794-.62-.345-1.135-.925-1.62-1.103-.532-.196-1.629-.517-1.792-.586-.327-.139-.535-.43-.535-.654 0-.225-.56-.84-.952-1.457-.393-.616-.953-1.345-.784-2.689.167-1.345.167-3.585-.336-4.257s-2.045-1.681-2.353-2.241c-.309-.559-1.135-.96-1.64-.96-.354 0-.114 2.239-.125 2.866-.01.583.251.988.437 1.088.187.1.491.647.462 1.134-.034.586-.576.346-.452 1.137.084.533.365.393.589.421.2.025.297.893.168 1.008-.151.134-.336.252-.28.532.056.28.167 1.12.503 1.12.337 0 .504-.504.504-.784s.112-3.193.225-3.697c.112-.504-.225-1.036-.504-1.429-.28-.392-1.072-.872-.959-1.376.112-.504.251-1.037.413-.964.31.137.267.728.379.896.113.167 1.896 1.441 2.268 1.949.309.42.317 2.437.309 2.773-.011.39-.499.67-.555.361-.105-.575.216-1.442-.343-1.481-.391-.028-.503.56-.447 1.457.056.896.251 2.801.476 2.969.224.168.504.252.616.588.112.335.285.826.701.924.477.112.896.252.588.42-.484.264-1.177.558-1.513.587-.952.084-1.665.765-2.134 1.104-.62.449-1.068 1.379-1.344 2.034-.049.116-.16.808-.552 1.172-.464.431-1.083.725-1.378.861-.364.168-.697.629-.138.517.561-.112 1.653-.701 1.765-.056.102.585-.924.589-1.288.645-.351.055-1.093.504-.729.868.258.257.997-.446 1.513-.42.56.028 1.261.364 1.765.42.504.056 1.525.125 1.933 0 .364-.112 1.849-1.12 2.605-1.063.562.041 1.175.513 1.68.756.644.308 1.33.742 2.787.713 1.466-.028 2.445-.605 2.585-.241.135.351-.179.429-.208.793-.026.352.065.659-.103.827-.213.213-.763-.039-.931-.207-.167-.168-.376-.429-.601-.429s-.98.057-.925.225c.056.168.28.28.785.28.392 0 1.12.925 1.344 1.036.225.113.84.562.729.786-.111.224-.252.224-.449.14-.257-.11-.293-.403-.573-.347l-.882.627c-.393.131-1.166.193-1.569.056-.524-.177-.926-.411-1.205-.756-.33-.41-.588-.98-.98-1.597-.393-.617-.952-1.316-1.288-1.26-.336.056-.449.784-.392 1.428.06.69.392 1.121.28 1.401-.112.281-.542.688-.56 1.148-.028.67.427.374.427.654 0 .279-.074.724-.298.666-.225-.06-.667-.131-.717.222-.056.393.173.303.476.362.287.06.277.489.333.656.056.169.105.377.357.489.419.187.488-.241.93-.168.424.07.488.17.758.252.364.11.875-.016.988-.184.112-.169.022-.628-.146-.852-.168-.223-.304-.682-.027-.729.336-.056.53.376.586.545s.276.519.482.759l.64.519c.251.251.308.446.364.646.077.27.701.363.869.588.167.225.167.672.448 1.062.28.393.588.645.308.982-.281.334-1.037-.562-1.568-1.123-.465-.486-1.121-1.258-1.513-1.258-.393 0-.393.418-.224 1.203.167.783.252 1.229.364 1.287l.417.021c.112.057.508.816 1.012 1.152s1.069.603 1.573.435c.504-.168.332-.601.444-.711.113-.113.729-.339 1.008-.339.28 0 .341-.887.341-1.055s-.229-.432-.173-.654c.057-.226.345-.477.345-.588 0-.11.044-.752.207-1.172.196-.504.513-1.377.401-2.16-.063-.448-.055-.869.112-1.431.168-.561.257-.792.168-1.288-.096-.532-.188-.798-.188-1.084 0-.253-.391-.62-.322-1.103.032-.222.259-.846.275-1.288.035-.895-.044-1.211-.207-1.584-.229-.529-.602-1.056-.792-1.126-.532-.196-.391-.481-.616-.649-.141-.106-.363-.449-.083-.504.28-.057.477.055.869-.084.422-.151.393-.616.617-.616.223 0 .938.165.869.337-.085.214-.25.747.587.276.243-.138.392-.306.672-.137.28.167.028.448-.14.616s-.756.336-.756.449c0 .112-.113.392.224.392.336 0 .755-.252.868-.364.111-.112.189-.365.42-.365.28 0 .168.224.672.168.504-.056.701-.28.924-1.177.225-.896.473-2.642.585-3.65l.206-1.953c.047-.276.189-.559.302-.67.112-.112.448-.896.672-1.065.224-.167.729-.111.503.393-.223.504-.56.745-.594 1.12-.03.34.203.84.147 1.121-.057.28-.617.336-.561.784.056.449.196 1.596.196 1.877 0 .28-.525.392-.413.785.112.391.217.644.049.979-.168.336-.452.91-.508 1.134-.057.224-.134 1.31-.345 1.402-.368.161-.896 0-1.164.209-.22.173-.335.561-.616.561-.28 0-.504.167-.728.336-.224.168-.392.7-.057.532.336-.168 1.093-.701 1.374-.701.28 0 .644 0 .812-.056s.729-.28 1.008-.504c.28-.225.405-.702.405-.814 0-.112.575-.064.575.161 0 .224.169.961.057 1.185-.112.225-.517.561-.517.561s-.8.307-.744.588c.056.28.7.14 1.036.028.336-.112.868-.532.981-.42.112.111-.364.729-.196 1.289.168.56 1.232.671 1.625.503.392-.168.44-.381.608-.437.168-.056.754-.112 1.034 0s.711.241.711.409-.561.308-.449.589c.113.28.309.28.645.224.336-.056.728.057 1.176.168.448.112 1.847.506 2.421.713.321.116.667.595.667 1.379s-.029 1.644-.253 1.654c-.414.022-.453-1.002-.733-1.561-.302-.604-1.009-1.037-1.12-.925-.112.112-.308.309.083.756.393.448.588.674.588 1.008 0 .337.046.598.101.744.07.185.406.498.347.74-.082.34-.857.262-1.082.063-.174-.153-.123-1.661-.291-1.941-.169-.28-.7-1.345-1.149-1.568-.447-.225-.924 0-.755.504.168.504.279 1.175.56 1.344.28.168.555.559.555.559l-.052.338s0 .785.112 1.011l.504.56c.056.168.336 1.01.616 1.401.28.391.173.552.565.552.393 0 .511-.312.623-.703.112-.392 1.308-.308 1.308-.308s-.714 3.268-1.058 4.112c-.128.315-1.953 3.961-2.615 5.027-.685 1.107-3.312 4.317-3.888 4.727-.42.301-2.185 1.819-2.24 1.933-.057.11-4.511 2.624-4.792 2.792-.279.168-4.077 1.449-4.917 1.562-.84.109-4.748.397-5.141.359-.627-.062-3.444-.361-4.315-.546-.884-.185-6.828-2.373-7.238-2.619-.568-.34-5.498-4.312-5.722-4.479-.224-.168-3.91-5.312-4.102-5.756-.168-.395-1.529-3.436-1.585-3.826-.057-.395-1.186-5.158-1.241-5.549-.057-.395.01-3.776.069-4.449.067-.767.577-3.438.689-3.999.111-.56 1.064-3.188 1.792-4.757.729-1.568 1.765-2.828 2.942-4.228 1.176-1.401 4.545-4.319 4.826-4.711.279-.388.918-.639.918-.639zm-9.617 26.438c-.011.243.757.529.552.863-.429.701.639.977.432 1.391-.207.413-.343.896-.586.758-.31-.172-1.19-3.08-1.328-3.769-.07-.353-.31-2.481-.276-2.964.034-.483.568-.648.62-.689.173-.138 1.626-.734 1.827-.827.334-.154 1.31-1.036 1.414-1.242.103-.206.145-.737.172-1.172.023-.368.092-.758-.137-.828-.271-.081-.569.088-.621.345-.052.257-.211.843-.448.793-.437-.092-.655.731-.655.966 0 .506-.954.586-.931.172.014-.246.448-1.655.46-2.172.008-.384-.403-.734-.207-1.126.157-.314.234-1.492.283-1.688.207-.379 1.137-.655.69.552-.133.357-.313.816.084.976.23.091.378.083.743-.701.241-.517 1.137-.275.724.586-.355.741.468.635.648.711.179.078.212.431.183.667-.04.332.34.404.621.345.28-.06 1.467-.688 2.176-.555.822.154 1.169.279 1.427.383.257.103.668.103.565-.258-.103-.359.285-1.014.336-1.271.051-.257.551-.526.459-.804-.091-.277-.975-.623-1.181-.648-.234-.029-.437.771-.488 1.233-.052.462-.767.467-.921.059-.207-.551-.517-.586-.654-1.31-.095-.498-.552-.518-.897-.792-.613-.492-.112-.862-.138-1.069-.073-.602-.694-.678-.903-.434-.217.253-.573-.036-.805-.062-.342-.038-1.2.102-1.566.15-.518.069-.584.323-.658.53-.172.482-1.164-.182-1.164-.182s1.285-2.724 1.547-3.485c.224-.653 1.316-2.287 1.378-2.448.172-.448.792.242.206 1.069-.371.522-1.412 2.271-1.723 3.205-.19.568.75.498.93.138.117-.234 1.002-2.003 1.414-2.723.411-.719 1.371-2.38 1.551-2.792.177-.405.587-.794.793-1.206.206-.412.877-.447.62.413-.26.875-1.518 2.873-1.827 3.31-.293.415-1.224 2.052-1.275 2.309-.052.257-.12.638.034.689.154.051.863-.208 1.069-.517.205-.308.958-2.294 1.215-2.654.257-.359.82-1.536 1.128-1.896.309-.359 1.019.136.69.689-.759 1.275-1.545 2.853-1.862 3.274-.37.493.036 1.206.621.621.513-.514.743-1.124.999-1.586.257-.463.639-1.087.793-1.344.155-.256.785-.033.682.378-.103.411-.615 1.312-.924 1.62-.308.309-.484.691-.639.999-.154.309 0 .575.322.781.408.262.61.244.919.552.308.308.61.672.919.827.308.155.745.263.951.674.206.411.514 1.156 1.053 1.362.438.167.566.333.849.694.403.514.565.638.925.616.437-.026.411.514.488.925.048.257-.386 1.027-.386 1.439s.09 1.567-.257 1.748c-.245.127-.788-.179-1.003.012-.206.184-.714.089-.85-.114-.183-.277-.551-.3-.712-.163-.276.237-.63.176-.828-.021-.137-.138-.505-.024-.731.074-.652.283-.552-.302-.552-.302s.181-.51.412-.51c.185 0 .461.151.616.1.146-.048.339-.481.554-.649.218-.17.5-.232.368-.574-.08-.206.122-.385.276-.437.296-.098.667-.068.805-.23.105-.123.083-.702-.276-1.01-.36-.309-1.324-.04-1.425.689-.128.925-.986 1.298-1.533 1.44-.694.179-.927 0-1.492-.308-.566-.309-1.76-.319-2.234-.141-.417.157-.669.801-.301.801l1.642.161c.565 0 1.034.207 1.248.653.245.51.229.508-.488.41-1.484-.202-2.936.084-3.758.316-.297.084-1.328.992-1.482 1.068-.111.056-.857.467-1.379.861-.521.396-.437.846-.344 1.345.023.127.169.966.207 1.104l.586-.656c.126-.147 1.069-.688 1.551-1.274.438-.532 1.714-1.265 2.107-1.45 1.121-.527 2.397-.474 2.697-.363.302.111.914.551.531.938-.382.388-1.039.888-1.312 1.053-.273.167-.55-.036-.742.157s-.711.641-.938.63c-.723-.034-1.631.187-1.896.242-.483.103-1.379.425-1.724.665-.345.242-.644.647-.655.885zM66.944 31.22v10.811c0 .27.419.539.689.658.54.242 1.048.301 1.048.301h2.307s1.647.09 2.965-.779c1.562-1.027 2.007-3.234 1.948-4.941-.081-2.306-.933-3.576-2.277-4.762-1.527-1.348-4.822-1.288-4.822-1.288h-1.858zm0-11.203l-.03 7.967s.049.412.179.63c.18.299.629.39.629.39h1.198s.779-.031 1.378-.181c.431-.107 1.62-.837 2.366-1.707.54-.629 1.048-2.097 1.048-3.085 0-2.307-.839-3.236-1.977-3.805-1.535-.768-3.505-.779-3.505-.779h-.718s-.359 0-.48.18c-.104.16-.088.39-.088.39zm-6.32-2.277c0-.66 1.258-.479 1.258-.479h7.338s4.496.164 6.26 2.097c3.446 3.774 1.621 7.811.479 8.837-.898.81-2.366 1.229-2.366 1.229s2.187.479 3.685 1.827c1.689 1.521 3.766 6.912 1.557 10.452-2.036 3.266-4.73 3.788-8.088 3.654-3.025-.118-2.456-.448-5.602-.391-2.605.051-3.975.153-3.975.153s-1.066.104-.942-.577c.122-.668.699-.546 1.593-1.134.621-.41 1.034-1.496 1.198-2.457.209-1.229.239-2.994.239-2.994v-15.275s-.03-.27-.03-.539c0-1.898-1.528-3.534-2.067-3.714-.507-.18-.507-.299-.537-.689zM89.262 30.385h6.409l-3.414-8.358-2.995 8.358zm-10.485 14.316c.175-.887.734-.176 1.916-1.438.869-.931 1.468-1.857 2.037-3.057.289-.607.72-1.799.72-1.799l6.62-18.03s.089-.629.089-1.079c0-.419-.074-.838-.074-.838s.317-.042.524-.09l.643-.164 2.921-.944 8.147 20.068s1.298 3.562 2.697 5.271c.539.66 1.168 1.198 1.887 1.229 1.166.048.509 1.257-.239 1.257-.601 0-2.815-.059-4.731-.029-2.129.029-6.053.182-6.053.182s-.838.062-.658-.569c.232-.827.868-.657 1.348-.75 1.214-.228 2.787-.81 3.058-2.035.188-.86-.419-2.456-.419-2.456l-2.758-6.828h-7.969l-2.274 6.469s-.3.896-.358 1.318c-.062.418-.062 1.887.539 2.604.6.718 2.217.928 2.995.987.777.061.181 1.166-.421 1.166-.6 0-3.055-.088-4.854-.146-1.799-.062-4.793.181-4.793.181s-.54.15-.54-.48zM105.646 17.774s.776.06 1.767.12c.958.058 2.485.12 2.485.12l10.813-.03s1.767 0 3.534-.149c1.374-.117 3.477-.27 3.477-.27s-.123 1.513-.449 3.355c-.33 1.857-.602 2.996-.602 2.996s-.148.659-.326.779c-.183.12-1.171.479-1.171.479s.228-1.257.183-1.917c-.062-.868-.313-2.27-.9-2.666-1.018-.689-2.247-.66-3.204-.719-.959-.06-2.547.03-2.966.329-.42.3-.357 1.139-.357 1.139v18.241s-.062 2.276.986 3.056c.938.696 2.434 1.119 2.434 1.119s1.062 0 .832.768c-.156.519-.81.602-.81.602s-3.804-.13-5.66-.148c-2.728-.029-4.983.127-5.821.148-1.062.031-.802-1.285.152-1.396.509-.061 1.992-.172 2.973-1.238 1.021-1.108 1.168-3.354 1.168-3.354v-16.991s-.062-1.253-.449-1.678c-.657-.718-2.364-.659-3.742-.539-1.744.151-2.778.802-3.234 1.918-.479 1.167-.689 2.665-1.05 2.846-.381.19-1.288.419-1.288.419s.407-1.833.721-4.014c.206-1.468.504-3.325.504-3.325zM130.089 17.504c-.931-.068-1.144 1.239-.596 1.361.667.148 1.226.046 1.823.735.724.832.539 2.636.539 2.636v16.474s.002 1.849-.119 2.755c-.18 1.35-.766 1.836-1.483 2.137-.644.271-1.153.307-1.241.979-.086.653.635.571.635.571s1.734-.122 4.013-.153c2.276-.028 4.629.153 5.349.153.721 0 1.154-1.154.094-1.31-1.17-.166-2.3-.37-3.141-1.149-.65-.604-.508-2.188-.508-2.188v-9.764h13.062v9.764s-.011 2.188-1.089 2.549c-1.077.357-1.642.396-2.399.518-.789.126-1.508 1.58-.608 1.58s3.681-.213 5.896-.213c1.289 0 3.377.138 3.68.15.669.029.943-.263 1.062-.67.151-.515-.486-.638-.912-.789-.5-.179-1.002-.363-1.428-1.031-.512-.806-.367-2.541-.367-2.541v-17.762s-.092-1.707.479-2.545c.625-.922.866-.81 1.407-.988.709-.238.869-1.288.238-1.229-.668.063-2.875.199-4.135.179-1.917-.03-3.98-.139-4.464-.155-.881-.031-1.056 1.336-.396 1.336.723 0 1.899.189 2.463 1.006.601.869.597 2.456.57 2.486v6.021h-13.063v-6.112s-.062-2.066.868-2.696c.666-.45 1.289-.479 2.065-.599.778-.12 1.229-1.497.39-1.438-.838.06-3.023.06-4.939.06-1.918.002-3.025-.028-3.745-.118zM61.733 5.276v.517l.664.053.148.147v3.648c0 .812.053 1.434.464 1.972.433.549 1.213.864 2.256.864 1.982 0 2.784-.854 2.784-2.783v-3.659l.147-.18.644-.063v-.516h-2.394v.517l.674.063.159.18v3.553c0 1.402-.433 2.056-1.603 2.056-1.266 0-1.719-.601-1.719-1.961v-3.69l.147-.147.654-.053v-.518h-3.025zM70.497 12.351h2.404v-.507l-.653-.084-.17-.19v-4.881l3.649 5.662h1.181v-6.295l.179-.201.622-.084v-.495h-2.404v.495l.643.084.19.201v4.512l-3.227-5.007v-.285h-2.425v.516l.675.053.148.148v5.577l-.19.19-.622.084zM79.467 12.351h3.152v-.517l-.707-.053-.168-.169v-5.619l.168-.148.707-.053v-.516h-3.152v.516l.696.053.169.148v5.619l-.169.169-.696.053zM83.922 5.276v.516l.696.127 2.394 6.453h1.064l2.34-6.443.686-.137v-.516h-2.309v.516l.633.053.114.158-1.696 4.809-1.748-4.809.114-.158.61-.053v-.516zM92.409 12.351h5.661v-1.887h-.716l-.18 1.117-.136.169h-2.447v-2.742h1.371l.145.148.107.759h.622v-2.446h-.622l-.107.76-.145.146h-1.371v-2.509h2.097l.138.137.156.928h.741v-1.655h-5.314v.516l.643.053.169.148v5.619l-.169.169-.643.053zM102.143 5.877v2.751l.379.01c1.129 0 1.668-.442 1.668-1.412 0-.865-.539-1.35-1.562-1.35l-.485.001zm-2.163-.601h3.205c1.635 0 2.479.632 2.479 1.803 0 .97-.622 1.581-1.812 1.804.506.115.864.315 1.104.654.328.463.412 1.032.612 1.561.223.579.537.737 1.244.737h.136v.506c-.368.052-.728.084-1.054.084-.453 0-.845-.127-1.098-.327-.547-.422-.645-.896-.812-1.402-.325-1.002-.602-1.456-1.666-1.456h-.18v2.372l.17.169.644.053v.517h-2.974v-.517l.621-.053.17-.169v-5.62l-.17-.147-.621-.053v-.516h.002zM108.616 12.119c.653.231 1.36.348 2.034.348 1.729 0 2.795-.907 2.795-2.162 0-.622-.338-1.191-.948-1.582-.622-.4-1.183-.558-1.509-.759-.559-.337-.854-.653-.854-1.138 0-.58.476-1.002 1.244-1.002.337 0 .58.053.771.148l.147.147.181 1.097h.76v-1.709c-.664-.231-1.329-.358-1.982-.358-1.508 0-2.49.906-2.49 2.077 0 .517.256 1.033.739 1.445.464.389.959.569 1.382.78.748.38 1.129.759 1.129 1.329 0 .58-.507 1.001-1.361 1.001-.325 0-.631-.053-.926-.147l-.14-.158-.169-1.266h-.801l-.002 1.909zM115.561 12.351h3.153v-.517l-.707-.053-.168-.169v-5.619l.168-.148.707-.053v-.516h-3.153v.516l.697.053.168.148v5.619l-.168.169-.697.053zM120.407 5.276v1.866h.726l.17-1.128.17-.137h1.263v5.735l-.177.169-.687.053v.517h3.151v-.517l-.683-.053-.18-.169v-5.735h1.266l.157.137.181 1.128h.726v-1.866zM127.742 5.276v.516l.675.106 2.024 3.669v2.056l-.168.148-.707.053v.527h3.163v-.527l-.715-.053-.17-.148v-2.31l2.004-3.405.623-.116v-.516h-2.3v.506l.632.116.086.169-1.508 2.583-1.445-2.678.093-.127.592-.053v-.516zM142.621 5.792c-1.17 0-2.003 1.118-2.003 3.004 0 1.94.854 3.079 1.981 3.079 1.159 0 1.991-1.139 1.991-3.005.003-1.949-.819-3.078-1.969-3.078zm-3.574 2.984c0-1.149.369-2.077 1.087-2.741.663-.612 1.485-.917 2.466-.917.908 0 1.678.274 2.32.823.812.696 1.255 1.708 1.255 2.899 0 1.118-.39 2.066-1.128 2.752-.645.601-1.486.928-2.373.928-2.182-.001-3.627-1.498-3.627-3.744zM148.121 12.351h3.109v-.517l-.737-.053-.179-.169v-2.456h1.413l.148.136.105.77h.622v-2.456h-.622l-.105.769-.148.138h-1.413v-2.626h2.036l.136.137.159 1.023h.726v-1.771h-5.293v.516l.676.053.169.148v5.619l-.169.169-.633.053z"/><path stroke="#515661" stroke-width="2.136" stroke-miterlimit="3.864" fill="none" d="M60.656 51.652h93.951"/><path fill="#fff" d="M4.581 34.439c-.011.244.757.528.552.862-.429.701.639.978.432 1.392s-.343.895-.586.758c-.31-.172-1.19-3.08-1.328-3.768-.07-.354-.31-2.482-.276-2.966.034-.481.568-.647.62-.688.173-.137 1.626-.732 1.827-.826.334-.154 1.31-1.036 1.414-1.243.103-.205.145-.736.172-1.172.022-.367.092-.757-.137-.828-.271-.08-.57.088-.622.346-.052.256-.211.842-.448.793-.437-.092-.655.73-.655.965 0 .508-.954.586-.931.172.014-.244.448-1.654.46-2.172.008-.383-.403-.732-.207-1.125.157-.314.234-1.492.283-1.688.207-.379 1.137-.655.69.552-.133.357-.313.816.084.978.23.092.378.082.743-.701.241-.518 1.137-.275.724.586-.355.741.468.634.648.71.179.078.212.432.183.668-.04.332.34.404.621.344.28-.059 1.467-.688 2.176-.555.822.154 1.169.279 1.427.383.257.104.668.104.565-.258-.103-.359.285-1.014.336-1.271.051-.256.551-.525.459-.803-.091-.277-.975-.623-1.181-.648-.234-.029-.437.771-.488 1.232-.052.463-.767.467-.921.059-.207-.551-.517-.586-.654-1.309-.095-.498-.552-.519-.897-.793-.613-.492-.112-.861-.138-1.068-.073-.603-.694-.678-.903-.435-.217.253-.573-.036-.805-.062-.342-.038-1.2.102-1.566.15-.518.068-.584.322-.658.529-.172.482-1.164-.182-1.164-.182s1.285-2.725 1.547-3.485c.224-.653 1.316-2.287 1.378-2.448.172-.448.792.242.206 1.069-.371.522-1.412 2.271-1.723 3.205-.19.567.75.498.93.138.117-.234 1.002-2.003 1.414-2.723.411-.719 1.371-2.38 1.551-2.792.177-.405.587-.794.793-1.206.206-.412.877-.447.62.413-.26.875-1.518 2.873-1.827 3.31-.293.415-1.224 2.053-1.275 2.309-.052.258-.12.639.034.689.154.051.863-.208 1.069-.518.205-.307.958-2.293 1.215-2.653.257-.358.82-1.536 1.128-1.896.309-.359 1.019.136.69.689-.759 1.274-1.545 2.853-1.862 3.274-.37.492.036 1.205.621.621.513-.515.743-1.125.999-1.586.257-.463.639-1.088.793-1.344.155-.257.785-.033.682.377-.103.411-.615 1.312-.924 1.62-.308.31-.484.69-.639.999-.154.309 0 .575.322.781.408.262.61.244.919.552.308.308.61.673.919.827.308.154.745.264.951.674.206.411.514 1.156 1.053 1.363.438.166.566.332.849.693.403.514.565.639.925.615.437-.025.411.514.488.926.048.256-.386 1.027-.386 1.439s.09 1.566-.257 1.749c-.245.127-.788-.18-1.003.012-.206.185-.714.089-.85-.116-.183-.275-.551-.299-.712-.162-.276.237-.63.176-.828-.021-.137-.137-.505-.023-.731.074-.652.284-.552-.303-.552-.303s.181-.51.412-.51c.185 0 .461.152.616.102.146-.049.339-.482.554-.65.218-.17.5-.232.368-.574-.08-.205.122-.385.276-.436.296-.1.667-.068.805-.23.105-.123.083-.703-.276-1.01-.36-.309-1.324-.041-1.425.688-.128.926-.986 1.299-1.533 1.441-.694.178-.927 0-1.492-.309-.566-.309-1.76-.318-2.234-.141-.417.156-.669.801-.301.801l1.642.16c.565 0 1.034.207 1.248.654.245.51.229.508-.488.41-1.484-.203-2.936.084-3.758.314-.297.084-1.328.992-1.482 1.068-.111.057-.857.467-1.379.861-.521.396-.437.846-.344 1.346.023.127.169.965.207 1.104l.586-.655c.126-.146 1.069-.688 1.551-1.272.438-.533 1.714-1.267 2.107-1.451 1.121-.527 2.397-.474 2.697-.363.302.111.914.551.531.939-.382.387-1.039.887-1.312 1.053s-.55-.037-.742.156c-.192.192-.711.641-.938.631-.723-.035-1.631.186-1.896.242-.483.102-1.379.424-1.724.664-.345.242-.644.646-.654.884z"/></svg>